<svg width="30" height="30" viewBox="0 0 30 30" fill="none" xmlns="http://www.w3.org/2000/svg">
<path d="M14.92 0.999908C7.2321 0.999908 1 7.44691 1 15.3999C1 23.3529 7.2321 29.7999 14.92 29.7999C22.6079 29.7999 28.84 23.3529 28.84 15.3999C28.84 7.44691 22.6079 0.999908 14.92 0.999908ZM20.5823 12.7959C20.5881 12.9189 20.5895 13.0419 20.5895 13.1619C20.5895 16.9119 17.8331 21.2334 12.79 21.2334C11.2998 21.236 9.8406 20.7932 8.58785 19.9584C8.801 19.9854 9.01995 19.9959 9.2418 19.9959C10.5265 19.9959 11.7083 19.5444 12.6464 18.7824C12.0747 18.7708 11.5207 18.575 11.0617 18.2222C10.6027 17.8694 10.2615 17.3773 10.0857 16.8144C10.4963 16.8952 10.9192 16.8782 11.3225 16.7649C10.702 16.6351 10.144 16.2873 9.74308 15.7804C9.34217 15.2735 9.12306 14.6388 9.1229 13.9839V13.9494C9.49265 14.1609 9.91605 14.2899 10.3656 14.3049C9.78381 13.9043 9.37199 13.2889 9.21432 12.5846C9.05664 11.8803 9.16502 11.1403 9.5173 10.5159C10.206 11.3919 11.0648 12.1085 12.0382 12.6194C13.0116 13.1302 14.0779 13.4239 15.168 13.4814C15.0294 12.8729 15.089 12.234 15.3376 11.6642C15.5862 11.0943 16.0099 10.6254 16.5427 10.3303C17.0755 10.0352 17.6876 9.93049 18.2838 10.0324C18.8801 10.1343 19.4271 10.4372 19.8399 10.8939C20.4534 10.7683 21.0419 10.5355 21.5799 10.2054C21.3753 10.8626 20.9472 11.4207 20.3749 11.7759C20.9184 11.7082 21.4492 11.557 21.9496 11.3274C21.582 11.8973 21.1189 12.3946 20.5823 12.7959Z" fill="white" fill-opacity="0.85"/>
</svg>
