<svg width="30" height="30" viewBox="0 0 30 30" fill="none" xmlns="http://www.w3.org/2000/svg">
<path d="M17.2444 15.1494L13.9877 13.5774C13.7035 13.4409 13.47 13.5939 13.47 13.9194V16.8804C13.47 17.2059 13.7035 17.3589 13.9877 17.2224L17.2429 15.6504C17.5286 15.5124 17.5286 15.2874 17.2444 15.1494ZM14.92 0.999908C7.2321 0.999908 1 7.44691 1 15.3999C1 23.3529 7.2321 29.7999 14.92 29.7999C22.6079 29.7999 28.84 23.3529 28.84 15.3999C28.84 7.44691 22.6079 0.999908 14.92 0.999908ZM14.92 21.2499C7.7947 21.2499 7.67 20.5854 7.67 15.3999C7.67 10.2144 7.7947 9.54991 14.92 9.54991C22.0453 9.54991 22.17 10.2144 22.17 15.3999C22.17 20.5854 22.0453 21.2499 14.92 21.2499Z" fill="white" fill-opacity="0.85"/>
</svg>
